<svg width="24" height="24" viewBox="0 0 24 24" fill="none" stroke="inherit" xmlns="http://www.w3.org/2000/svg">
<path d="M12 22C12 20.9444 12.2315 18.58 13.1579 17.5667C14.0843 16.5533 17.0175 13.3444 18.3684 11.8667M12 22C12 20.9444 11.7685 18.58 10.8421 17.5667L5.63158 11.8667M12 22V6.8M18.3684 11.8667V14.4M18.3684 11.8667H16.0526M5.63158 11.8667V14.4M5.63158 11.8667H7.94737M12 6.8L13.7368 8.7M12 6.8L10.2632 8.7M14.8947 19.4667H21C22.1046 19.4667 23 18.5712 23 17.4667V5C23 3.89543 22.1046 3 21 3H3C1.89543 3 1 3.89543 1 5V17.4667C1 18.5712 1.89543 19.4667 3 19.4667H9.10526" stroke-linecap="round" stroke-linejoin="round"/>
</svg>
