<svg width="24" height="24" viewBox="0 0 24 24" fill="none" xmlns="http://www.w3.org/2000/svg">
<path d="M23 12C23 18.0751 18.0751 23 12 23M23 12C23 5.92487 18.0751 1 12 1M23 12H1M12 23C5.92487 23 1 18.0751 1 12M12 23C14.1697 23 15.9286 18.0751 15.9286 12C15.9286 5.92487 14.1697 1 12 1M12 23C9.83031 23 8.07143 18.0751 8.07143 12C8.07143 5.92487 9.83031 1 12 1M1 12C1 5.92487 5.92487 1 12 1M4.53571 3.92005C6.49855 5.3991 9.34198 6.5 12 6.5C14.658 6.5 17.5015 5.3991 19.4643 3.92005M19.3891 20.1488C17.4263 18.6697 14.658 17.5 12 17.5C9.34198 17.5 6.59309 18.6873 4.63025 20.1663" stroke="white"/>
</svg>
