<svg width="24" height="24" viewBox="0 0 24 24" xmlns="http://www.w3.org/2000/svg">
<path fill-rule="evenodd" clip-rule="evenodd" d="M17.5155 1.9142C17.7849 0.695265 19.5994 0.695265 19.8687 1.9142C20.0168 2.58453 20.7382 2.9839 21.4177 2.77173C22.6533 2.38594 23.5606 3.8927 22.5943 4.72584C22.063 5.18401 22.063 5.98274 22.5943 6.44091C23.5606 7.27405 22.6533 8.78081 21.4177 8.39502C20.7382 8.18286 20.0168 8.58222 19.8687 9.25255C19.5994 10.4715 17.7849 10.4715 17.5155 9.25255C17.3674 8.58222 16.646 8.18286 15.9665 8.39502C14.7309 8.78081 13.8237 7.27405 14.7899 6.44091C15.3213 5.98274 15.3213 5.18401 14.7899 4.72584C13.8237 3.8927 14.7309 2.38594 15.9665 2.77173C16.646 2.9839 17.3674 2.58453 17.5155 1.9142ZM21.4278 5.58338C21.4278 7.03213 20.203 8.20657 18.6921 8.20657C17.1812 8.20657 15.9564 7.03213 15.9564 5.58338C15.9564 4.13463 17.1812 2.96018 18.6921 2.96018C20.203 2.96018 21.4278 4.13463 21.4278 5.58338ZM6.10539 22.9451C9.8911 21.6251 10.5603 19.2509 10.5603 14.75C10.5667 14.5406 10.498 14.3355 10.3658 14.1687C10.2336 14.0019 10.0459 13.8836 9.83374 13.8334L6.00979 12.9167C5.8591 12.881 5.7016 12.881 5.55091 12.9167L1.72696 13.8334C1.51485 13.8836 1.32706 14.0019 1.19487 14.1687C1.06267 14.3355 0.994043 14.5406 1.00041 14.75C1.00041 19.2509 1.6696 21.6251 5.45531 22.9451C5.66535 23.0179 5.89535 23.0179 6.10539 22.9451ZM6.04053 22.0387C9.06884 20.9615 9.60415 19.0241 9.60415 15.3512C9.60924 15.1803 9.55434 15.0129 9.4486 14.8768C9.34285 14.7407 9.19264 14.6441 9.02296 14.6032L5.96406 13.8551C5.84351 13.826 5.71753 13.826 5.59699 13.8551L2.53808 14.6032C2.36841 14.6441 2.21819 14.7407 2.11245 14.8768C2.0067 15.0129 1.9518 15.1803 1.95689 15.3512C1.95689 19.0241 2.4922 20.9615 5.52051 22.0387C5.68853 22.0981 5.87251 22.0981 6.04053 22.0387Z"/>
<path d="M19.8687 1.9142L20.3569 1.80632V1.80632L19.8687 1.9142ZM17.5155 1.9142L17.0273 1.80632V1.80632L17.5155 1.9142ZM21.4177 2.77173L21.2687 2.29446L21.4177 2.77173ZM22.5943 4.72584L22.2678 4.34717L22.2678 4.34717L22.5943 4.72584ZM22.5943 6.44091L22.2678 6.81958L22.2678 6.81958L22.5943 6.44091ZM21.4177 8.39502L21.5667 7.91774V7.91774L21.4177 8.39502ZM19.8687 9.25255L20.3569 9.36043V9.36043L19.8687 9.25255ZM17.5155 9.25255L17.0273 9.36043L17.5155 9.25255ZM15.9665 8.39502L15.8175 7.91774H15.8175L15.9665 8.39502ZM14.7899 6.44091L15.1164 6.81958H15.1164L14.7899 6.44091ZM14.7899 4.72584L14.4634 5.10452V5.10452L14.7899 4.72584ZM15.9665 2.77173L16.1156 2.29446L15.9665 2.77173ZM10.5603 14.75L10.0605 14.7349L10.0603 14.7424V14.75H10.5603ZM6.10539 22.9451L6.26916 23.4175L6.27001 23.4172L6.10539 22.9451ZM9.83374 13.8334L9.71719 14.3196L9.71861 14.3199L9.83374 13.8334ZM6.00979 12.9167L6.12634 12.4305L6.12512 12.4302L6.00979 12.9167ZM5.55091 12.9167L5.43558 12.4302L5.43436 12.4305L5.55091 12.9167ZM1.72696 13.8334L1.84209 14.3199L1.84351 14.3196L1.72696 13.8334ZM1.19487 14.1687L1.58671 14.4793H1.58671L1.19487 14.1687ZM1.00041 14.75H1.50041V14.7424L1.50018 14.7349L1.00041 14.75ZM5.45531 22.9451L5.29069 23.4172L5.29154 23.4175L5.45531 22.9451ZM9.60415 15.3512L9.10437 15.3363L9.10415 15.3438V15.3512H9.60415ZM6.04053 22.0387L6.20724 22.5101L6.2081 22.5098L6.04053 22.0387ZM9.4486 14.8768L9.84343 14.57L9.84343 14.57L9.4486 14.8768ZM9.02296 14.6032L8.90419 15.0888L8.90564 15.0892L9.02296 14.6032ZM5.96406 13.8551L6.08283 13.3694L6.08158 13.3691L5.96406 13.8551ZM5.59699 13.8551L5.47946 13.3691L5.47821 13.3694L5.59699 13.8551ZM2.53808 14.6032L2.6554 15.0892L2.65686 15.0888L2.53808 14.6032ZM2.11245 14.8768L1.71761 14.57L1.71761 14.57L2.11245 14.8768ZM1.95689 15.3512H2.45689V15.3438L2.45667 15.3363L1.95689 15.3512ZM5.52051 22.0387L5.35295 22.5098L5.35381 22.5101L5.52051 22.0387ZM20.3569 1.80632C20.162 0.924318 19.4 0.5 18.6921 0.5C17.9842 0.5 17.2222 0.924318 17.0273 1.80632L18.0037 2.02209C18.0782 1.68515 18.3581 1.5 18.6921 1.5C19.0261 1.5 19.306 1.68515 19.3805 2.02209L20.3569 1.80632ZM21.2687 2.29446C20.8501 2.42516 20.4377 2.17181 20.3569 1.80632L19.3805 2.02209C19.596 2.99725 20.6264 3.54263 21.5667 3.24901L21.2687 2.29446ZM22.9208 5.10452C23.6107 4.50969 23.6304 3.64884 23.2601 3.03377C22.8924 2.42318 22.1275 2.02631 21.2687 2.29446L21.5667 3.24901C21.9436 3.13136 22.25 3.29498 22.4034 3.5496C22.554 3.79976 22.5442 4.10885 22.2678 4.34717L22.9208 5.10452ZM22.9208 6.06224C22.6208 5.80353 22.6208 5.36322 22.9208 5.10451L22.2678 4.34717C21.5051 5.0048 21.5051 6.16195 22.2678 6.81958L22.9208 6.06224ZM21.2687 8.87229C22.1275 9.14044 22.8924 8.74358 23.2601 8.13298C23.6304 7.51791 23.6107 6.65706 22.9208 6.06224L22.2678 6.81958C22.5442 7.0579 22.554 7.36699 22.4034 7.61715C22.25 7.87177 21.9436 8.03539 21.5667 7.91774L21.2687 8.87229ZM20.3569 9.36043C20.4377 8.99494 20.8501 8.74159 21.2687 8.87229L21.5667 7.91774C20.6264 7.62412 19.596 8.1695 19.3805 9.14466L20.3569 9.36043ZM17.0273 9.36043C17.2222 10.2424 17.9842 10.6668 18.6921 10.6668C19.4 10.6668 20.162 10.2424 20.3569 9.36043L19.3805 9.14466C19.306 9.4816 19.0261 9.66675 18.6921 9.66675C18.3581 9.66675 18.0782 9.4816 18.0037 9.14466L17.0273 9.36043ZM16.1156 8.87229C16.5342 8.74159 16.9465 8.99494 17.0273 9.36043L18.0037 9.14466C17.7883 8.1695 16.7579 7.62412 15.8175 7.91774L16.1156 8.87229ZM14.4634 6.06224C13.7736 6.65706 13.7539 7.51791 14.1242 8.13298C14.4918 8.74358 15.2568 9.14044 16.1156 8.87229L15.8175 7.91774C15.4407 8.03539 15.1342 7.87177 14.9809 7.61715C14.8303 7.36699 14.84 7.0579 15.1164 6.81958L14.4634 6.06224ZM14.4634 5.10452C14.7635 5.36322 14.7635 5.80353 14.4634 6.06224L15.1164 6.81958C15.8791 6.16195 15.8791 5.0048 15.1164 4.34717L14.4634 5.10452ZM16.1156 2.29446C15.2568 2.02631 14.4918 2.42318 14.1242 3.03377C13.7539 3.64884 13.7736 4.5097 14.4634 5.10452L15.1164 4.34717C14.84 4.10885 14.8303 3.79976 14.9809 3.5496C15.1342 3.29498 15.4407 3.13136 15.8175 3.24901L16.1156 2.29446ZM17.0273 1.80632C16.9465 2.17181 16.5342 2.42516 16.1156 2.29446L15.8175 3.24901C16.7579 3.54263 17.7883 2.99725 18.0037 2.02209L17.0273 1.80632ZM18.6921 8.70657C20.4592 8.70657 21.9278 7.32785 21.9278 5.58338H20.9278C20.9278 6.7364 19.9469 7.70657 18.6921 7.70657V8.70657ZM15.4564 5.58338C15.4564 7.32785 16.9251 8.70657 18.6921 8.70657V7.70657C17.4374 7.70657 16.4564 6.7364 16.4564 5.58338H15.4564ZM18.6921 2.46018C16.9251 2.46018 15.4564 3.8389 15.4564 5.58338H16.4564C16.4564 4.43035 17.4374 3.46018 18.6921 3.46018V2.46018ZM21.9278 5.58338C21.9278 3.8389 20.4592 2.46018 18.6921 2.46018V3.46018C19.9469 3.46018 20.9278 4.43035 20.9278 5.58338H21.9278ZM10.0603 14.75C10.0603 16.9961 9.88902 18.6126 9.30257 19.8222C8.73462 20.9937 7.74491 21.8439 5.94077 22.4729L6.27001 23.4172C8.25158 22.7262 9.48932 21.7293 10.2024 20.2585C10.897 18.8258 11.0603 17.0049 11.0603 14.75H10.0603ZM9.97399 14.4793C10.0342 14.5552 10.0632 14.6454 10.0605 14.7349L11.0601 14.7652C11.0701 14.4359 10.9619 14.1157 10.7577 13.8581L9.97399 14.4793ZM9.71861 14.3199C9.82419 14.3449 9.91343 14.4029 9.97399 14.4793L10.7577 13.8581C10.5538 13.6009 10.2675 13.4222 9.94887 13.3468L9.71861 14.3199ZM5.89323 13.4029L9.71719 14.3196L9.9503 13.3471L6.12634 12.4305L5.89323 13.4029ZM5.66624 13.4032C5.7411 13.3855 5.8196 13.3855 5.89446 13.4032L6.12512 12.4302C5.89859 12.3765 5.66211 12.3765 5.43558 12.4302L5.66624 13.4032ZM1.84351 14.3196L5.66747 13.4029L5.43436 12.4305L1.6104 13.3471L1.84351 14.3196ZM1.58671 14.4793C1.64727 14.4029 1.73651 14.3449 1.84209 14.3199L1.61183 13.3468C1.29318 13.4222 1.00686 13.6009 0.803022 13.8581L1.58671 14.4793ZM1.50018 14.7349C1.49746 14.6454 1.52652 14.5552 1.58671 14.4793L0.803022 13.8581C0.598821 14.1157 0.490629 14.4359 0.500636 14.7652L1.50018 14.7349ZM5.61993 22.4729C3.81579 21.8439 2.82608 20.9937 2.25813 19.8222C1.67168 18.6126 1.50041 16.9961 1.50041 14.75H0.500406C0.500406 17.0049 0.663727 18.8258 1.3583 20.2585C2.07138 21.7293 3.30912 22.7262 5.29069 23.4172L5.61993 22.4729ZM5.94161 22.4726C5.83766 22.5087 5.72304 22.5087 5.61909 22.4726L5.29154 23.4175C5.60766 23.5271 5.95304 23.5271 6.26916 23.4175L5.94161 22.4726ZM9.10415 15.3512C9.10415 17.1836 8.96642 18.4857 8.50636 19.4537C8.06477 20.3829 7.29627 21.0613 5.87296 21.5676L6.2081 22.5098C7.8131 21.9389 8.82642 21.11 9.40956 19.883C9.97423 18.6948 10.1042 17.1917 10.1042 15.3512H9.10415ZM9.05376 15.1836C9.08885 15.2287 9.10597 15.2826 9.10437 15.3363L10.1039 15.3661C10.1125 15.078 10.0198 14.7971 9.84343 14.57L9.05376 15.1836ZM8.90564 15.0892C8.96669 15.1039 9.01849 15.1382 9.05376 15.1836L9.84343 14.57C9.66721 14.3432 9.41858 14.1843 9.14028 14.1171L8.90564 15.0892ZM5.84528 14.3408L8.90419 15.0888L9.14173 14.1175L6.08283 13.3694L5.84528 14.3408ZM5.71452 14.3411C5.75782 14.3306 5.80323 14.3306 5.84653 14.3411L6.08158 13.3691C5.8838 13.3213 5.67724 13.3213 5.47946 13.3691L5.71452 14.3411ZM2.65686 15.0888L5.71576 14.3408L5.47821 13.3694L2.41931 14.1175L2.65686 15.0888ZM2.50728 15.1836C2.54255 15.1382 2.59435 15.1039 2.6554 15.0892L2.42076 14.1171C2.14246 14.1843 1.89383 14.3432 1.71761 14.57L2.50728 15.1836ZM2.45667 15.3363C2.45507 15.2826 2.47219 15.2287 2.50728 15.1836L1.71761 14.57C1.54121 14.7971 1.44853 15.078 1.45711 15.3661L2.45667 15.3363ZM5.68808 21.5676C4.26477 21.0613 3.49628 20.3829 3.05468 19.4537C2.59462 18.4857 2.45689 17.1836 2.45689 15.3512H1.45689C1.45689 17.1917 1.58681 18.6948 2.15149 19.883C2.73462 21.11 3.74794 21.9389 5.35295 22.5098L5.68808 21.5676ZM5.87382 21.5673C5.81367 21.5886 5.74737 21.5886 5.68722 21.5673L5.35381 22.5101C5.62969 22.6077 5.93136 22.6077 6.20724 22.5101L5.87382 21.5673ZM20.1418 21.0001V12H19.1418V21.0001H20.1418ZM6.34597 5.16668H12.4719V4.16668H6.34597V5.16668ZM17.6418 22.5001H9.60431V23.5001H17.6418V22.5001ZM3.84597 6.66668V11.0834H4.84597V6.66668H3.84597ZM6.34597 4.16668C4.96526 4.16668 3.84597 5.28596 3.84597 6.66668H4.84597C4.84597 5.83825 5.51754 5.16668 6.34597 5.16668V4.16668ZM19.1418 21.0001C19.1418 21.8285 18.4702 22.5001 17.6418 22.5001V23.5001C19.0225 23.5001 20.1418 22.3808 20.1418 21.0001H19.1418Z"/>
</svg>
