<svg width="24" height="24" viewBox="0 0 24 24" fill="none" xmlns="http://www.w3.org/2000/svg">
<path d="M11 4V11C11 12.1046 10.1046 13 9 13H4C2.89543 13 2 12.1046 2 11V4C2 2.89543 2.89543 2 4 2H9C10.1046 2 11 2.89543 11 4Z" stroke="white"/>
<path d="M11 20V17C11 15.8954 10.1046 15 9 15H4C2.89543 15 2 15.8954 2 17V20C2 21.1046 2.89543 22 4 22H9C10.1046 22 11 21.1046 11 20Z" stroke="white"/>
<path d="M20.0012 11H14.9995C13.895 11 13 11.8954 13 13V20C13 21.1046 13.8954 22 15 22H20C21.1046 22 22 21.1046 22 20V13C22 11.8954 21.1058 11 20.0012 11Z" stroke="white"/>
<path d="M20 9H15C13.8954 9 13 8.10457 13 7V4C13 2.89543 13.8954 2 15 2H20C21.1046 2 22 2.89543 22 4V7C22 8.10457 21.1046 9 20 9Z" stroke="white"/>
</svg>
