<svg width="24" height="24" viewBox="0 0 24 24" fill="none" xmlns="http://www.w3.org/2000/svg">
<path d="M14.42 4H16.5599C17.6645 4 18.5599 4.89543 18.5599 6V13.373C18.5599 14.2015 17.445 14.9255 16.62 15.0017C16.4473 15.0177 16.2698 15.0429 16.089 15.077C15.077 15.2681 14.1717 15.8087 13.5422 16.5978C12.9127 17.3868 12.6021 18.3703 12.6684 19.3645C12.6796 19.5325 12.7014 19.6989 12.7335 19.8627C12.9062 20.7452 12.3275 22 11.4283 22H4C2.89543 22 2 21.1046 2 20V6C2 4.89543 2.89543 4 4 4H6.13999M14.42 4V4C14.42 2.89543 13.5245 2 12.42 2H8.13999C7.03542 2 6.13999 2.89543 6.13999 4V4M14.42 4V4C14.42 5.10457 13.5245 6 12.42 6H8.13999C7.03542 6 6.13999 5.10457 6.13999 4V4M21.7186 17.9406C22.1273 17.5479 22.0859 16.9468 21.6261 16.5978C21.1663 16.2488 20.4622 16.2842 20.0535 16.6768L17.7999 18.8416L16.4009 17.8462C15.9283 17.5099 15.2259 17.5644 14.8321 17.9679C14.4383 18.3715 14.5021 18.9712 14.9747 19.3075L18.0314 21.4825L21.7186 17.9406ZM6.10499 14.975H12.385C12.9372 14.975 13.385 14.5273 13.385 13.975V13.975C13.385 13.4227 12.9372 12.975 12.385 12.975H6.10499C5.5527 12.975 5.10499 13.4227 5.10499 13.975V13.975C5.10499 14.5273 5.5527 14.975 6.10499 14.975ZM14.455 7.975H6.10499C5.5527 7.975 5.10499 8.42272 5.10499 8.975V8.975C5.10499 9.52728 5.5527 9.975 6.10499 9.975H14.455C15.0072 9.975 15.455 9.52728 15.455 8.975V8.975C15.455 8.42272 15.0072 7.975 14.455 7.975Z" stroke="white"/>
</svg>
